<?xml version="1.0" encoding="utf-8"?>
<!-- Generator: Adobe Illustrator 23.0.1, SVG Export Plug-In . SVG Version: 6.00 Build 0)  -->
<svg version="1.1" id="Layer_1" xmlns="http://www.w3.org/2000/svg" xmlns:xlink="http://www.w3.org/1999/xlink" x="0px" y="0px"
	 viewBox="0 0 20 20" style="enable-background:new 0 0 20 20;" xml:space="preserve">
<style type="text/css">
	.st0{fill-rule:evenodd;clip-rule:evenodd;fill:#6B6B6B;}
</style>
<path class="st0" d="M13,7.5c0-3-2.5-5.5-5.5-5.5C4.5,2,2,4.5,2,7.5c0,3,2.5,5.5,5.5,5.5C10.5,13,13,10.5,13,7.5z M7.5,15
	C3.4,15,0,11.6,0,7.5C0,3.4,3.4,0,7.5,0C11.6,0,15,3.4,15,7.5c0,1.7-0.6,3.3-1.6,4.6c0.1,0,0.2,0.1,0.3,0.2l6,6c0.4,0.4,0.4,1,0,1.4
	c-0.4,0.4-1,0.4-1.4,0l-6-6c-0.1-0.1-0.1-0.2-0.2-0.3C10.8,14.4,9.2,15,7.5,15z"/>
</svg>
